<svg width="114" height="36" viewBox="0 0 114 36" fill="none" xmlns="http://www.w3.org/2000/svg">
<path d="M7.246 16.646L7.338 16.738C7.82867 16.37 8.51867 16.0787 9.408 15.864C10.2973 15.6493 11.156 15.542 11.984 15.542C13.3947 15.542 14.698 15.7873 15.894 16.278C17.1207 16.7687 18.1787 17.4587 19.068 18.348C19.9573 19.2067 20.6473 20.2647 21.138 21.522C21.6593 22.7487 21.92 24.098 21.92 25.57C21.92 27.1033 21.6593 28.4987 21.138 29.756C20.6167 31.0133 19.8807 32.0867 18.93 32.976C17.9793 33.8653 16.86 34.5553 15.572 35.046C14.284 35.5673 12.8733 35.828 11.34 35.828C9.80667 35.828 8.396 35.5673 7.108 35.046C5.82 34.5553 4.70067 33.8653 3.75 32.976C2.79933 32.0867 2.06333 31.0133 1.542 29.756C1.02067 28.4987 0.76 27.1033 0.76 25.57C0.76 23.8833 1.05133 22.3193 1.634 20.878C2.21667 19.4367 2.90667 18.0567 3.704 16.738L12.582 2.432H16.4L7.246 16.646ZM4.072 25.57C4.072 26.6433 4.24067 27.64 4.578 28.56C4.946 29.4493 5.452 30.2313 6.096 30.906C6.74 31.55 7.50667 32.0713 8.396 32.47C9.28533 32.838 10.2667 33.022 11.34 33.022C12.4133 33.022 13.3947 32.838 14.284 32.47C15.1733 32.0713 15.94 31.55 16.584 30.906C17.228 30.2313 17.7187 29.4493 18.056 28.56C18.424 27.64 18.608 26.6433 18.608 25.57C18.608 24.5273 18.4393 23.5613 18.102 22.672C17.7647 21.752 17.274 20.97 16.63 20.326C16.0167 19.6513 15.25 19.13 14.33 18.762C13.4407 18.394 12.444 18.21 11.34 18.21C10.236 18.21 9.224 18.394 8.304 18.762C7.41467 19.13 6.648 19.6513 6.004 20.326C5.39067 20.97 4.91533 21.752 4.578 22.672C4.24067 23.5613 4.072 24.5273 4.072 25.57ZM33.1476 32.792C33.1476 33.436 32.9176 34.0187 32.4576 34.54C31.9976 35.0307 31.3996 35.276 30.6636 35.276C29.9276 35.276 29.3296 35.0307 28.8696 34.54C28.4096 34.0187 28.1796 33.436 28.1796 32.792C28.1796 32.148 28.4096 31.5807 28.8696 31.09C29.3296 30.5687 29.9276 30.308 30.6636 30.308C31.3996 30.308 31.9976 30.5687 32.4576 31.09C32.9176 31.5807 33.1476 32.148 33.1476 32.792ZM59.8168 35H38.9788V31.55L52.3188 18.072C52.8095 17.5813 53.2848 17.06 53.7448 16.508C54.2355 15.9253 54.6648 15.3273 55.0328 14.714C55.4008 14.1007 55.6921 13.4567 55.9068 12.782C56.1215 12.0767 56.2288 11.356 56.2288 10.62C56.2288 9.66933 56.0601 8.81066 55.7228 8.044C55.3855 7.27733 54.9101 6.63333 54.2968 6.112C53.7141 5.56 53.0241 5.146 52.2268 4.87C51.4601 4.56333 50.6475 4.41 49.7888 4.41C48.0408 4.41 46.5688 4.962 45.3728 6.066C44.1768 7.13933 43.4101 8.51933 43.0728 10.206L39.8068 9.562C40.0215 8.42733 40.4201 7.36933 41.0028 6.388C41.6161 5.40666 42.3521 4.56333 43.2108 3.858C44.1001 3.15266 45.0968 2.60066 46.2008 2.202C47.3048 1.80333 48.5008 1.604 49.7888 1.604C51.1075 1.604 52.3495 1.80333 53.5148 2.202C54.7108 2.57 55.7535 3.13733 56.6428 3.904C57.5321 4.64 58.2375 5.57533 58.7588 6.71C59.3108 7.814 59.5868 9.102 59.5868 10.574C59.5868 11.6167 59.4335 12.5827 59.1268 13.472C58.8508 14.3613 58.4675 15.2047 57.9768 16.002C57.5168 16.7993 56.9648 17.566 56.3208 18.302C55.6768 19.0073 55.0021 19.7127 54.2968 20.418L42.5668 32.056H59.8168V35ZM70.6764 23.178H70.8144L80.7504 13.472H85.2584L74.4024 23.316L86.3624 35H81.7624L70.8144 23.684H70.6764V35H67.5484V0.223998H70.6764V23.178Z" fill="#13253A"/>
<path d="M103.464 19.682H113.814V22.442H103.464V32.792H100.704V22.442H90.3536V19.682H100.704V9.332H103.464V19.682Z" fill="#FF7F57"/>
</svg>
